<svg width="67" height="40" viewBox="0 0 67 40" fill="none" xmlns="http://www.w3.org/2000/svg">
<path d="M0 20C0 8.9543 8.9543 0 20 0H46.25C57.2958 0 66.25 8.9543 66.25 20V40H20C8.9543 40 0 31.0457 0 20Z" fill="#4845D2"/>
<path d="M46.25 7.5H20C13.0965 7.5 7.5 13.0964 7.5 20C7.5 26.9035 13.0965 32.5 20 32.5H46.25C53.1536 32.5 58.75 26.9035 58.75 20C58.75 13.0964 53.1536 7.5 46.25 7.5Z" fill="#A5B4FC"/>
<path d="M20 26.25C23.4518 26.25 26.25 23.4517 26.25 20C26.25 16.5482 23.4518 13.75 20 13.75C16.5483 13.75 13.75 16.5482 13.75 20C13.75 23.4517 16.5483 26.25 20 26.25Z" fill="black"/>
<path d="M17.5 18.75C18.1904 18.75 18.75 18.1903 18.75 17.5C18.75 16.8096 18.1904 16.25 17.5 16.25C16.8097 16.25 16.25 16.8096 16.25 17.5C16.25 18.1903 16.8097 18.75 17.5 18.75Z" fill="white"/>
<path d="M47.5 26.25C50.9518 26.25 53.75 23.4517 53.75 20C53.75 16.5482 50.9518 13.75 47.5 13.75C44.0483 13.75 41.25 16.5482 41.25 20C41.25 23.4517 44.0483 26.25 47.5 26.25Z" fill="black"/>
<path d="M45 18.75C45.6904 18.75 46.25 18.1903 46.25 17.5C46.25 16.8096 45.6904 16.25 45 16.25C44.3097 16.25 43.75 16.8096 43.75 17.5C43.75 18.1903 44.3097 18.75 45 18.75Z" fill="white"/>
</svg>
