
      <svg data-logo="logo" xmlns="http://www.w3.org/2000/svg" viewBox="0 0 353 43">
        <g id="logogram" transform="translate(0, 1) rotate(0) "><path d="M0.452637 20.81C0.452637 9.76427 9.40694 0.809967 20.4526 0.809967H46.7026C57.7484 0.809967 66.7026 9.76427 66.7026 20.81V40.81H20.4526C9.40694 40.81 0.452637 31.8557 0.452637 20.81Z" fill="#4845D2"/><path d="M46.7026 8.30997H20.4526C13.5491 8.30997 7.95264 13.9064 7.95264 20.81C7.95264 27.7135 13.5491 33.31 20.4526 33.31H46.7026C53.6062 33.31 59.2026 27.7135 59.2026 20.81C59.2026 13.9064 53.6062 8.30997 46.7026 8.30997Z" fill="#A5B4FC"/><path d="M20.4526 27.06C23.9044 27.06 26.7026 24.2617 26.7026 20.81C26.7026 17.3582 23.9044 14.56 20.4526 14.56C17.0009 14.56 14.2026 17.3582 14.2026 20.81C14.2026 24.2617 17.0009 27.06 20.4526 27.06Z" fill="black"/><path d="M17.9526 19.56C18.643 19.56 19.2026 19.0003 19.2026 18.31C19.2026 17.6196 18.643 17.06 17.9526 17.06C17.2623 17.06 16.7026 17.6196 16.7026 18.31C16.7026 19.0003 17.2623 19.56 17.9526 19.56Z" fill="white"/><path d="M47.9526 27.06C51.4044 27.06 54.2026 24.2617 54.2026 20.81C54.2026 17.3582 51.4044 14.56 47.9526 14.56C44.5009 14.56 41.7026 17.3582 41.7026 20.81C41.7026 24.2617 44.5009 27.06 47.9526 27.06Z" fill="black"/><path d="M45.4526 19.56C46.143 19.56 46.7026 19.0003 46.7026 18.31C46.7026 17.6196 46.143 17.06 45.4526 17.06C44.7623 17.06 44.2026 17.6196 44.2026 18.31C44.2026 19.0003 44.7623 19.56 45.4526 19.56Z" fill="white"/></g>
        <g id="logotype" transform="translate(73, 1)"><path fill="#8585FF" d="M19.59 33.34L19.59 33.34Q16.01 33.34 13.32 31.76Q10.63 30.18 9.12 27.25Q7.61 24.32 7.61 20.30L7.61 20.30Q7.61 16.17 9.18 13.24Q10.75 10.30 13.43 8.75Q16.12 7.19 19.47 7.19L19.47 7.19Q21.62 7.19 23.47 7.82Q25.33 8.44 26.77 9.59Q28.22 10.73 29.13 12.30Q30.05 13.86 30.32 15.74L30.32 15.74L25.02 15.74Q24.75 14.83 24.26 14.11Q23.77 13.38 23.08 12.87Q22.39 12.36 21.50 12.09Q20.61 11.83 19.55 11.83L19.55 11.83Q17.59 11.83 16.08 12.81Q14.58 13.79 13.74 15.67Q12.90 17.55 12.90 20.25L12.90 20.25Q12.90 22.95 13.73 24.84Q14.56 26.73 16.07 27.72Q17.57 28.71 19.62 28.71L19.62 28.71Q21.47 28.71 22.78 28.04Q24.10 27.38 24.81 26.15Q25.52 24.92 25.52 23.24L25.52 23.24L26.61 23.40L19.98 23.40L19.98 19.43L30.58 19.43L30.58 22.61Q30.58 25.96 29.16 28.36Q27.74 30.76 25.26 32.05Q22.78 33.34 19.59 33.34ZM37.51 33.38L37.51 33.38Q35.70 33.38 34.26 32.74Q32.81 32.09 31.98 30.82Q31.15 29.55 31.15 27.65L31.15 27.65Q31.15 26.06 31.74 24.98Q32.33 23.91 33.35 23.26Q34.37 22.61 35.66 22.27Q36.95 21.93 38.37 21.79L38.37 21.79Q40.02 21.62 41.04 21.47Q42.06 21.33 42.53 21.01Q43.00 20.70 43.00 20.08L43.00 20.08L43.00 19.99Q43.00 19.17 42.66 18.61Q42.31 18.05 41.65 17.75Q40.98 17.45 40.01 17.45L40.01 17.45Q39.02 17.45 38.28 17.75Q37.55 18.05 37.08 18.54Q36.62 19.04 36.40 19.65L36.40 19.65L31.70 18.87Q32.20 17.21 33.34 16.05Q34.49 14.88 36.19 14.27Q37.89 13.65 40.01 13.65L40.01 13.65Q41.56 13.65 43.01 14.02Q44.47 14.39 45.62 15.16Q46.77 15.93 47.45 17.16Q48.12 18.39 48.12 20.13L48.12 20.13L48.12 33L43.27 33L43.27 30.35L43.10 30.35Q42.64 31.24 41.87 31.91Q41.10 32.59 40.02 32.98Q38.93 33.38 37.51 33.38ZM38.96 29.77L38.96 29.77Q40.18 29.77 41.09 29.29Q42.01 28.81 42.52 27.99Q43.03 27.17 43.03 26.16L43.03 26.16L43.03 24.10Q42.81 24.27 42.35 24.40Q41.89 24.54 41.32 24.64Q40.76 24.75 40.21 24.83Q39.66 24.92 39.24 24.97L39.24 24.97Q38.30 25.10 37.58 25.41Q36.86 25.72 36.47 26.22Q36.08 26.73 36.08 27.51L36.08 27.51Q36.08 28.25 36.45 28.75Q36.83 29.26 37.47 29.51Q38.11 29.77 38.96 29.77ZM55.35 33L50.22 33L50.22 13.89L54.98 13.89L55.23 18.64L54.86 18.64Q55.30 16.88 56.16 15.77Q57.03 14.66 58.19 14.13Q59.35 13.60 60.63 13.60L60.63 13.60Q62.70 13.60 63.96 14.91Q65.23 16.22 65.83 18.95L65.83 18.95L65.23 18.95Q65.66 17.12 66.62 15.94Q67.59 14.75 68.91 14.18Q70.24 13.60 71.69 13.60L71.69 13.60Q73.45 13.60 74.83 14.37Q76.20 15.14 77.00 16.59Q77.79 18.03 77.79 20.11L77.79 20.11L77.79 33L72.66 33L72.66 21.09Q72.66 19.46 71.78 18.68Q70.90 17.89 69.62 17.89L69.62 17.89Q68.66 17.89 67.96 18.31Q67.25 18.73 66.86 19.48Q66.48 20.23 66.48 21.24L66.48 21.24L66.48 33L61.52 33L61.52 20.95Q61.52 19.55 60.69 18.72Q59.86 17.89 58.55 17.89L58.55 17.89Q57.64 17.89 56.92 18.30Q56.19 18.71 55.77 19.51Q55.35 20.30 55.35 21.45L55.35 21.45L55.35 33ZM88.52 33.38L88.52 33.38Q85.60 33.38 83.48 32.18Q81.36 30.98 80.22 28.78Q79.09 26.57 79.09 23.55L79.09 23.55Q79.09 20.59 80.22 18.37Q81.34 16.15 83.41 14.90Q85.48 13.65 88.26 13.65L88.26 13.65Q90.14 13.65 91.77 14.25Q93.39 14.85 94.62 16.06Q95.85 17.26 96.54 19.07Q97.24 20.88 97.24 23.34L97.24 23.34L97.24 24.78L81.19 24.78L81.19 21.57L94.72 21.57L92.33 22.42Q92.33 20.93 91.88 19.83Q91.43 18.73 90.53 18.12Q89.63 17.52 88.30 17.52L88.30 17.52Q86.98 17.52 86.05 18.13Q85.12 18.75 84.64 19.80Q84.16 20.85 84.16 22.20L84.16 22.20L84.16 24.47Q84.16 26.13 84.72 27.26Q85.27 28.39 86.27 28.95Q87.27 29.51 88.61 29.51L88.61 29.51Q89.51 29.51 90.25 29.26Q90.98 29.00 91.50 28.50Q92.02 27.99 92.30 27.26L92.30 27.26L96.95 28.13Q96.48 29.70 95.34 30.89Q94.19 32.08 92.48 32.73Q90.76 33.38 88.52 33.38ZM103.59 33L98.46 33L98.46 13.89L103.42 13.89L103.42 17.23L103.63 17.23Q104.16 15.45 105.39 14.54Q106.63 13.64 108.24 13.64L108.24 13.64Q108.63 13.64 109.09 13.68Q109.54 13.72 109.90 13.81L109.90 13.81L109.90 18.39Q109.56 18.27 108.91 18.20Q108.26 18.13 107.68 18.13L107.68 18.13Q106.51 18.13 105.57 18.64Q104.63 19.14 104.11 20.04Q103.59 20.93 103.59 22.13L103.59 22.13L103.59 33ZM121.69 33.34L121.69 33.34Q118.30 33.34 115.63 31.80Q112.96 30.27 111.41 27.34Q109.86 24.42 109.86 20.29L109.86 20.29Q109.86 16.13 111.42 13.20Q112.97 10.27 115.66 8.73Q118.34 7.19 121.69 7.19L121.69 7.19Q123.86 7.19 125.73 7.80Q127.60 8.41 129.05 9.57Q130.51 10.73 131.43 12.42Q132.35 14.10 132.64 16.23L132.64 16.23L127.36 16.23Q127.19 15.19 126.70 14.38Q126.22 13.57 125.49 13.00Q124.76 12.42 123.82 12.12Q122.88 11.83 121.79 11.83L121.79 11.83Q119.81 11.83 118.30 12.82Q116.80 13.81 115.98 15.70Q115.16 17.58 115.16 20.29L115.16 20.29Q115.16 23.04 116.00 24.92Q116.83 26.80 118.32 27.75Q119.81 28.71 121.77 28.71L121.77 28.71Q122.87 28.71 123.80 28.41Q124.73 28.11 125.47 27.54Q126.22 26.97 126.70 26.15Q127.19 25.33 127.38 24.30L127.38 24.30L132.66 24.30Q132.45 26.06 131.61 27.69Q130.76 29.31 129.36 30.59Q127.96 31.87 126.03 32.61Q124.10 33.34 121.69 33.34ZM139.19 21.94L139.19 21.94L139.19 33L134.06 33L134.06 7.54L139.08 7.54L139.08 18.66L138.67 18.66Q139.43 16.27 140.95 14.96Q142.48 13.65 144.91 13.65L144.91 13.65Q146.89 13.65 148.37 14.52Q149.85 15.38 150.66 17.00Q151.47 18.61 151.47 20.85L151.47 20.85L151.47 33L146.35 33L146.35 21.74Q146.35 19.96 145.43 18.95Q144.52 17.94 142.89 17.94L142.89 17.94Q141.82 17.94 140.97 18.41Q140.13 18.88 139.66 19.77Q139.19 20.66 139.19 21.94ZM158.91 33.38L158.91 33.38Q157.09 33.38 155.65 32.74Q154.21 32.09 153.38 30.82Q152.55 29.55 152.55 27.65L152.55 27.65Q152.55 26.06 153.14 24.98Q153.73 23.91 154.74 23.26Q155.76 22.61 157.05 22.27Q158.34 21.93 159.76 21.79L159.76 21.79Q161.42 21.62 162.43 21.47Q163.45 21.33 163.92 21.01Q164.39 20.70 164.39 20.08L164.39 20.08L164.39 19.99Q164.39 19.17 164.05 18.61Q163.71 18.05 163.04 17.75Q162.37 17.45 161.40 17.45L161.40 17.45Q160.41 17.45 159.67 17.75Q158.94 18.05 158.48 18.54Q158.02 19.04 157.79 19.65L157.79 19.65L153.10 18.87Q153.59 17.21 154.74 16.05Q155.88 14.88 157.58 14.27Q159.28 13.65 161.40 13.65L161.40 13.65Q162.96 13.65 164.41 14.02Q165.86 14.39 167.01 15.16Q168.17 15.93 168.84 17.16Q169.52 18.39 169.52 20.13L169.52 20.13L169.52 33L164.66 33L164.66 30.35L164.49 30.35Q164.03 31.24 163.26 31.91Q162.49 32.59 161.41 32.98Q160.32 33.38 158.91 33.38ZM160.36 29.77L160.36 29.77Q161.57 29.77 162.49 29.29Q163.40 28.81 163.91 27.99Q164.43 27.17 164.43 26.16L164.43 26.16L164.43 24.10Q164.20 24.27 163.74 24.40Q163.28 24.54 162.72 24.64Q162.15 24.75 161.61 24.83Q161.06 24.92 160.63 24.97L160.63 24.97Q159.69 25.10 158.97 25.41Q158.26 25.72 157.86 26.22Q157.47 26.73 157.47 27.51L157.47 27.51Q157.47 28.25 157.85 28.75Q158.22 29.26 158.86 29.51Q159.50 29.77 160.36 29.77ZM171.62 7.54L176.75 7.54L176.75 33L171.62 33L171.62 7.54ZM178.83 7.54L183.96 7.54L183.96 33L178.83 33L178.83 7.54ZM194.67 33.38L194.67 33.38Q191.75 33.38 189.63 32.18Q187.51 30.98 186.37 28.78Q185.23 26.57 185.23 23.55L185.23 23.55Q185.23 20.59 186.36 18.37Q187.49 16.15 189.56 14.90Q191.63 13.65 194.41 13.65L194.41 13.65Q196.29 13.65 197.92 14.25Q199.54 14.85 200.77 16.06Q202.00 17.26 202.69 19.07Q203.38 20.88 203.38 23.34L203.38 23.34L203.38 24.78L187.34 24.78L187.34 21.57L200.87 21.57L198.48 22.42Q198.48 20.93 198.03 19.83Q197.57 18.73 196.68 18.12Q195.78 17.52 194.45 17.52L194.45 17.52Q193.13 17.52 192.20 18.13Q191.27 18.75 190.79 19.80Q190.31 20.85 190.31 22.20L190.31 22.20L190.31 24.47Q190.31 26.13 190.87 27.26Q191.42 28.39 192.42 28.95Q193.42 29.51 194.75 29.51L194.75 29.51Q195.66 29.51 196.39 29.26Q197.13 29.00 197.65 28.50Q198.17 27.99 198.45 27.26L198.45 27.26L203.09 28.13Q202.63 29.70 201.49 30.89Q200.34 32.08 198.62 32.73Q196.91 33.38 194.67 33.38ZM209.74 21.94L209.74 21.94L209.74 33L204.61 33L204.61 13.89L209.45 13.89L209.53 18.66L209.23 18.66Q209.98 16.27 211.51 14.96Q213.04 13.65 215.46 13.65L215.46 13.65Q217.45 13.65 218.92 14.52Q220.39 15.38 221.21 17.00Q222.03 18.61 222.03 20.85L222.03 20.85L222.03 33L216.90 33L216.90 21.74Q216.90 19.96 215.99 18.95Q215.07 17.94 213.45 17.94L213.45 17.94Q212.37 17.94 211.53 18.41Q210.68 18.88 210.21 19.77Q209.74 20.66 209.74 21.94ZM232.60 40.55L232.60 40.55Q230.23 40.55 228.45 39.95Q226.67 39.34 225.56 38.28Q224.45 37.22 224.02 35.87L224.02 35.87L228.43 34.64Q228.67 35.17 229.18 35.67Q229.68 36.18 230.52 36.50Q231.36 36.83 232.59 36.83L232.59 36.83Q234.55 36.83 235.67 35.93Q236.79 35.03 236.79 33.14L236.79 33.14L236.79 29.62L236.40 29.62Q236.06 30.39 235.41 31.10Q234.76 31.82 233.71 32.27Q232.66 32.73 231.10 32.73L231.10 32.73Q228.95 32.73 227.19 31.72Q225.43 30.71 224.38 28.64Q223.32 26.57 223.32 23.41L223.32 23.41Q223.32 20.18 224.39 18.01Q225.46 15.84 227.23 14.75Q229.00 13.65 231.12 13.65L231.12 13.65Q232.72 13.65 233.82 14.19Q234.91 14.73 235.59 15.54Q236.26 16.35 236.60 17.11L236.60 17.11L236.82 17.11L236.82 13.89L241.87 13.89L241.87 32.85Q241.87 35.43 240.68 37.14Q239.49 38.86 237.41 39.71Q235.32 40.55 232.60 40.55ZM232.71 28.83L232.71 28.83Q234.02 28.83 234.94 28.18Q235.85 27.53 236.33 26.31Q236.81 25.09 236.81 23.38L236.81 23.38Q236.81 21.69 236.33 20.42Q235.85 19.16 234.94 18.46Q234.02 17.76 232.71 17.76L232.71 17.76Q231.36 17.76 230.44 18.48Q229.53 19.21 229.06 20.47Q228.59 21.74 228.59 23.38L228.59 23.38Q228.59 25.05 229.06 26.28Q229.53 27.50 230.45 28.16Q231.37 28.83 232.71 28.83ZM252.60 33.38L252.60 33.38Q249.67 33.38 247.56 32.18Q245.44 30.98 244.30 28.78Q243.16 26.57 243.16 23.55L243.16 23.55Q243.16 20.59 244.29 18.37Q245.42 16.15 247.49 14.90Q249.55 13.65 252.34 13.65L252.34 13.65Q254.22 13.65 255.84 14.25Q257.47 14.85 258.70 16.06Q259.93 17.26 260.62 19.07Q261.31 20.88 261.31 23.34L261.31 23.34L261.31 24.78L245.27 24.78L245.27 21.57L258.80 21.57L256.41 22.42Q256.41 20.93 255.96 19.83Q255.50 18.73 254.60 18.12Q253.71 17.52 252.37 17.52L252.37 17.52Q251.06 17.52 250.13 18.13Q249.20 18.75 248.72 19.80Q248.24 20.85 248.24 22.20L248.24 22.20L248.24 24.47Q248.24 26.13 248.79 27.26Q249.35 28.39 250.35 28.95Q251.35 29.51 252.68 29.51L252.68 29.51Q253.59 29.51 254.32 29.26Q255.06 29.00 255.58 28.50Q256.10 27.99 256.37 27.26L256.37 27.26L261.02 28.13Q260.56 29.70 259.42 30.89Q258.27 32.08 256.55 32.73Q254.84 33.38 252.60 33.38ZM270.13 33.38L270.13 33.38Q267.82 33.38 266.04 32.72Q264.27 32.06 263.14 30.80Q262.01 29.55 261.69 27.77L261.69 27.77L266.45 26.95Q266.83 28.28 267.77 28.95Q268.71 29.62 270.28 29.62L270.28 29.62Q271.74 29.62 272.59 29.06Q273.44 28.51 273.44 27.65L273.44 27.65Q273.44 26.90 272.84 26.42Q272.23 25.94 270.98 25.69L270.98 25.69L267.69 25.00Q264.92 24.44 263.55 23.08Q262.18 21.72 262.18 19.58L262.18 19.58Q262.18 17.74 263.19 16.41Q264.20 15.09 265.99 14.37Q267.79 13.65 270.21 13.65L270.21 13.65Q272.47 13.65 274.13 14.28Q275.79 14.90 276.81 16.05Q277.84 17.19 278.18 18.75L278.18 18.75L273.63 19.55Q273.34 18.58 272.51 17.95Q271.68 17.33 270.28 17.33L270.28 17.33Q269.02 17.33 268.16 17.86Q267.31 18.39 267.31 19.26L267.31 19.26Q267.31 19.99 267.86 20.49Q268.42 20.99 269.77 21.26L269.77 21.26L273.21 21.94Q275.97 22.51 277.32 23.78Q278.67 25.05 278.67 27.10L278.67 27.10Q278.67 28.98 277.58 30.39Q276.49 31.80 274.56 32.59Q272.64 33.38 270.13 33.38Z"/></g>
        
      </svg>
    